<?xml version="1.0" encoding="UTF-8"?><svg id="b" xmlns="http://www.w3.org/2000/svg" viewBox="0 0 260.56 151.58"><g id="c"><path d="M60.86,48.01c11.55-1.8,20.53,3.8,29.22,10.18,10.37,7.61,18.19,17.55,25.46,27.98.28.39.59.76.86,1.12.78-.45,1.45-.83,2.06-1.17.33.33.58.46.64.66,1.72,4.86.11,9.62-.76,14.3-1.97,10.65-6.23,20.58-10.42,30.5-.29.68-.74,1.29-1.17,1.89-.12.16-.42.19-1.09.46.59-6.95,4.01-13.05,4.17-19.91-.78,1.51-1.6,3-2.32,4.54-.81,1.75-1.05,3.88-3.73,4.05-.56.03-1.04,1.28-1.57,1.96-1.04,1.36-2.09,2.72-3.25,4.23-1.08-.87-1.9-1.54-2.82-2.28-1,.73-1.87,1.38-2.85,2.1-.17-1.12-.31-2.07-.47-3.08-.46-.07-.8-.18-1.13-.16-5.04.26-8.28,3.34-11.12,7.08-2.06,2.73-2.28,2.81-4.75,2.35,1.79-4.29,6.21-6.01,8.86-9.33-2.35-2.32-3.55-2.52-6.01-.84-1.64,1.12-3.15,2.44-4.82,3.52-1.07.69-2.32,1.09-3.68,1.28,2.9-3.51,8.18-4.04,10.61-9.53-.9-.57-2.14-1.35-3.56-2.25,1.42-2.16.63-3.55-1.28-4.58-.34-.18-.52-.69-.72-1.07-.56-1.06-1.1-2.14-2.32-3.03.37-1.01.74-2.03,1.13-3.09-.38-.08-.75-.28-1.08-.22-7.29,1.4-14.51,3.23-21.86,4.14-8.37,1.03-16.85,1.7-25.27,1.64-6.15-.05-12.24-1.77-17.85-4.58-7.19-3.61-9.61-9.79-6.88-17.4,1.87-5.21,5.08-9.62,8.65-13.76,8.73-10.13,19.11-18.38,29.86-26.25,19.61-14.35,39.05-28.93,58.58-43.39,2.77-2.05,5.59-4.08,8.52-5.88.72-.44,2,.02,3.03.06-.21.99-.09,2.28-.67,2.93-3.66,4.06-7.28,8.19-11.3,11.89-8.69,8.01-17.58,15.79-26.43,23.62-1.95,1.72-4.11,3.2-6.05,4.93-1.55,1.38-2.91,2.97-4.36,4.46-1.03.62-2.17,1.11-3.08,1.89-3.67,3.15-7.36,6.3-10.89,9.61-6.24,5.87-12.32,11.93-18.57,17.8-3.55,3.33-3.2,7.32-2.16,11.35,1.36,5.25,5.52,7.69,10.27,9.28,5.37,1.8,10.98,1.93,16.55,1.88,4.56-.05,9.11-.48,14.22-.77-3.69-5.92-7.58-10.69-12.52-14.52-2.94-2.28-6.12-4.25-9.08-6.49-3.08-2.33-3.07-4.79.25-6.74,2.3-1.35,4.9-2.62,7.5-2.96,5.71-.75,11.5-.88,17.45-1.28-1.78-4.11-4.54-8.02-7.56-11.69-1.86-2.26-2.96-4.51-2.46-7.42ZM85.6,108.33q1.7-3.66-1.52-7.31c1.8-2.22,3.64-4.5,5.28-6.52-1.59-1.19-3.43-2.16-4.7-3.63-1.42-1.66-2.38-3.73-3.43-5.68-2.68-4.99-5.31-10.01-7.65-14.45-9.9-1.34-19.08-1.97-27.86,3.93,1.47,1.12,2.47,2,3.58,2.71,7.65,4.86,14,11.03,19.13,18.52.92,1.34,2.44,2.45,3.93,3.18,1.12.55,2.64.45,3.96.38,1.87-.1,3.22.67,3.88,2.29.6,1.47-.3,2.62-1.5,3.47-.91.64-1.85,1.23-2.78,1.84,1.87,3,3.85,5.1,4.56,7.56,1.09,3.8,2.9,6.63,6.46,8.52,1.75-1.52,3.38-3.04,3.08-5.34-.16-1.18-1.3-2.23-2.1-3.51q1.91-5.22-2.3-5.96ZM109.23,107.6c-3.62,2.95-6.54,6.56-8.85,10.65-1.08,1.92-2.39,3.41-4.65,3.88-.52.11-.98.49-1.47.74,0,.28-.02.55-.03.83,1.51.32,3.01.64,3.86.81,6.21-4.37,8.78-10.52,11.14-16.91Z" style="fill:#0b1876; stroke-width:0px;"/><path d="M132,136.4c11.52-2.23,22.99-4.68,34.56-6.61,7.33-1.22,14.78-1.8,22.19-2.41,10.53-.87,21.1-1.34,31.62-2.27,8.7-.77,15.84-5.03,21.32-11.59,5.74-6.87,5.34-12.66-1.1-19.88-.96-1.07-2.22-1.87-3.72-3.11-.38,6.28-1.98,11.49-6.68,15.24-4.39,3.5-9.49,5.11-14.94,4.17-6.12-1.06-9.29-4.94-10.68-12.59-.9-4.96-2-9.73-6.83-12.93-1.03,1.37-1.95,3.01-3.25,4.25-2.66,2.56-5.41,5.04-8.32,7.29-2.31,1.79-5.11,2.17-8.06,2.25-3.04.08-6.06.77-9.02,1.18-1.22,4.96-2.34,9.51-3.46,14.05-.09.36-.02.78-.19,1.1-.8,1.56-.85,4.16-3.38,3.71-2.24-.39-2.18-2.73-2.38-4.53-.41-3.82.93-7.31,2.19-10.82,2.26-6.28,4.44-12.59,6.62-18.9.15-.43.07-.94-.48-1.7-1.84,2.99-3.7,5.97-5.52,8.96-3.67,6.01-7.75,11.68-14.63,14.31-1.99.76-4.3.69-6.46,1-1.44.21-2.89.35-4.32.65-1.31.27-2.58.69-4.11,1.12-1.08,4.34-2.14,8.78-3.29,13.19-.37,1.42-.76,2.9-1.5,4.14-1.14,1.91-3.24,1.73-3.63-.44-.51-2.84-.95-6.03-.18-8.71,2.11-7.34,4.87-14.5,7.35-21.74.42-1.23.69-2.52.45-4.05-2.59,3.89-5.18,7.78-7.77,11.67-1.76-1.23-1.42-2.53-.54-4.05,5.05-8.8,10.02-17.64,15.06-26.44,1.73-3.01,2.72-3.31,7.33-2.39-1.32,6.41-7,11.03-7.6,18.07,2.49-2.33,4.66-4.43,6.92-6.44,1.2-1.07,2.48-2.09,3.85-2.91,1.36-.82,3.13-1.87,4.4-.42,1.03,1.16,1.76,3.01,1.77,4.55.01,1.78-.68,3.68-1.48,5.32-1.8,3.66-3.87,7.2-6.02,11.15,3.47.44,5.87-1.41,7.86-3.6,1.81-1.99,3.33-4.3,4.68-6.64,4.58-7.93,9.05-15.93,13.53-23.92,1.12-2,2.39-3.86,4.78-4.33.86-.17,2.05.07,2.69.6.42.35.41,1.69.1,2.36-.94,2.02-2.19,3.89-3.19,5.88-1.47,2.95-2.83,5.96-4.23,8.94l.65.42c2.59-2.31,5.16-4.64,7.78-6.91.84-.72,1.82-1.28,2.75-1.89,1.57-1.03,3.55-1.58,4.78-.18,1.01,1.15,1.51,3.19,1.38,4.76-.15,1.9-1.02,3.82-1.9,5.57-1.81,3.59-3.83,7.08-5.83,10.71,4.93.02,7.53-3.47,10.34-6.55,1.08-1.18,1.93-2.58,2.89-3.87,2.08-2.79,5.03-3.09,7.67-.82,2.84,2.45,3.45,5.9,4.15,9.29.6,2.9.82,5.89,1.6,8.74.89,3.24,2.26,6.29,5.36,8.18,5.05,3.1,11.24,1.48,14-3.81,2.3-4.41,2.3-9.09,1.15-13.77-.25-1.02-1.37-1.92-2.25-2.69-3.72-3.25-7.68-6.26-11.21-9.7-3.05-2.97-3.53-6.84-1.72-10.67,3.2-6.75,9.12-10.71,15.4-14.25-2.15,2.16-4.49,4.17-6.39,6.53-1.52,1.89-2.9,4.08-3.61,6.37-1.03,3.35-.4,6.57,2.26,9.27,4.14,4.21,8.7,7.69,14.36,9.65,5.31,1.84,10.18,4.53,14.55,8.1,4.64,3.8,7.45,8.66,8.02,14.61.65,6.87-4.05,14.65-10.35,17.56-5.57,2.57-11.49,3.96-17.54,4.49-10.89.96-21.81,1.52-32.71,2.39-11.52.91-23.04,1.76-34.52,3.04-10.35,1.15-20.63,2.86-30.95,4.3-.72.1-1.47.01-2.2.01-.08-.21-.15-.41-.23-.62ZM183.82,78.31c-.35-.14-.7-.28-1.05-.42-4.92,2.8-7.73,7.24-9.77,12.44,4.28,1.22,6.9.14,8.14-3.85.47-1.51,1.5-2.85,2.02-4.35.42-1.2.46-2.54.66-3.82ZM147.55,86.06c-5.63,3.37-8.87,7.68-10.83,13.4,2.33-.27,4.36-.5,6.49-.74,1.46-3.99,4.83-7.2,4.34-12.66Z" style="fill:#0b1876; stroke-width:0px;"/><path d="M127.31,142.77c-25.07-1.85-49.55,1.39-73.53,8.82,23.34-12.33,48.22-12.17,73.53-8.82Z" style="fill:#0b1876; stroke-width:0px;"/><path d="M117.53,82.62c-4.37-10.14-4.75-24.47-.98-27.59-.52,2.65-1.45,5.33-1.49,8.02-.06,4.46.17,8.89,2.35,13.1.8,1.55.13,3.86.13,6.47Z" style="fill:#0b1876; stroke-width:0px;"/><path d="M113.89,81.05c-2.42-4.83-4.84-9.66-7.53-15.03,2.6,1.33,2.58,1.34,4.89,6.92,1.06,2.55,2.21,5.07,3.31,7.6-.22.17-.45.35-.67.52Z" style="fill:#0b1876; stroke-width:0px;"/></g></svg>